<svg class="ldi-94bbuc" width="236px"  height="236px"  xmlns="http://www.w3.org/2000/svg" xmlns:xlink="http://www.w3.org/1999/xlink" viewBox="0 0 100 100" preserveAspectRatio="xMidYMid" style="background: none;"><!--?xml version="1.0" encoding="utf-8"?--><!--Generator: Adobe Illustrator 21.0.0, SVG Export Plug-In . SVG Version: 6.00 Build 0)--><svg version="1.1" id="圖層_1" xmlns="http://www.w3.org/2000/svg" xmlns:xlink="http://www.w3.org/1999/xlink" x="0px" y="0px" viewBox="0 0 100 100" style="transform-origin: 50px 50px 0px;" xml:space="preserve"><g style="transform-origin: 50px 50px 0px;"><g style="transform-origin: 50px 50px 0px; transform: scale(0.6);"><g style="transform-origin: 50px 50px 0px;"><g><style type="text/css" class="ld ld-breath" style="transform-origin: 50px 50px 0px; animation-duration: 1s; animation-delay: -1s; animation-direction: normal;">.st0{fill:#E0E0E0;stroke:#333333;stroke-width:4;stroke-miterlimit:10;} .st1{fill:#FFFFFF;} .st2{fill:#333333;stroke:#333333;stroke-width:2;stroke-miterlimit:10;} .st3{fill:#FFFFFF;stroke:#333333;stroke-width:3.5699;stroke-miterlimit:10;} .st4{fill:#A0C8D7;} .st5{fill:#ABBD81;} .st6{fill:#FFFFFF;stroke:#333333;stroke-width:3.7333;stroke-miterlimit:10;} .st7{fill:#333333;} .st8{fill:#666666;} .st9{fill:#F47E60;} .st10{fill:#77A4BD;} .st11{fill:#E0E0E0;} .st12{fill:#A0C8D7;stroke:#333333;stroke-width:4.15;stroke-linecap:round;stroke-linejoin:round;stroke-miterlimit:10;} .st13{fill:#849B87;} .st14{fill:#FFFFFF;stroke:#333333;stroke-width:4.517;stroke-linejoin:round;stroke-miterlimit:10;} .st15{fill:#FFFFFF;stroke:#E15B64;stroke-width:9.375;stroke-miterlimit:10;} .st16{fill:#E0E0E0;stroke:#666666;stroke-width:4;stroke-miterlimit:10;} .st17{fill:#E15B64;} .st18{fill:none;stroke:#666666;stroke-width:4;stroke-linecap:round;stroke-miterlimit:10;} .st19{fill:#FFFFFF;stroke:#333333;stroke-miterlimit:10;} .st20{fill:#E0E0E0;stroke:#333333;stroke-width:4.8241;stroke-miterlimit:10;} .st21{fill:#333333;stroke:#333333;stroke-width:3.0189;stroke-miterlimit:10;} .st22{fill:#E0E0E0;stroke:#333333;stroke-miterlimit:10;} .st23{fill:none;stroke:#333333;stroke-width:4;stroke-miterlimit:10;} .st24{fill:#666666;stroke:#333333;stroke-width:6;stroke-miterlimit:10;} .st25{fill:none;stroke:#333333;stroke-width:3.7466;stroke-linecap:round;stroke-miterlimit:10;} .st26{fill:#ABBD81;stroke:#333333;stroke-width:4;stroke-miterlimit:10;} .st27{fill:#66503A;stroke:#333333;stroke-width:4;stroke-miterlimit:10;} .st28{fill:#FFFFFF;stroke:#333333;stroke-width:4;stroke-miterlimit:10;} .st29{fill:#FFFFFF;stroke:#333333;stroke-width:4;stroke-linecap:round;stroke-miterlimit:10;} .st30{fill:none;stroke:#333333;stroke-width:6;stroke-linecap:round;stroke-miterlimit:10;} .st31{fill:none;stroke:#333333;stroke-width:4;stroke-linecap:round;stroke-linejoin:round;stroke-miterlimit:10;} .st32{fill:#F47E60;stroke:#333333;stroke-width:4.8241;stroke-miterlimit:10;} .st33{fill:#E15B64;stroke:#333333;stroke-width:4.8241;stroke-miterlimit:10;} .st34{fill:#77A4BD;stroke:#333333;stroke-width:4.8241;stroke-miterlimit:10;} .st35{fill:#F8B26A;stroke:#333333;stroke-width:4.8241;stroke-miterlimit:10;} .st36{fill:#ABBD81;stroke:#333333;stroke-width:4.8241;stroke-miterlimit:10;} .st37{fill:#A0C8D7;stroke:#333333;stroke-width:4.8241;stroke-miterlimit:10;} .st38{fill:#F47E60;stroke:#333333;stroke-miterlimit:10;} .st39{fill:#E15B64;stroke:#333333;stroke-miterlimit:10;} .st40{fill:#77A4BD;stroke:#333333;stroke-miterlimit:10;} .st41{fill:#F8B26A;stroke:#333333;stroke-miterlimit:10;} .st42{fill:#ABBD81;stroke:#333333;stroke-miterlimit:10;} .st43{fill:#A0C8D7;stroke:#333333;stroke-miterlimit:10;} .st44{fill:#666666;stroke:#333333;stroke-width:4;stroke-miterlimit:10;} .st45{fill:#A0C8D7;stroke:#333333;stroke-width:4;stroke-miterlimit:10;} .st46{fill:none;stroke:#FFFFFF;stroke-width:6;stroke-linecap:round;stroke-miterlimit:10;} .st47{fill:#E0E0E0;stroke:#000000;stroke-width:2.5;stroke-linecap:round;stroke-miterlimit:10;} .st48{fill:none;stroke:#E15B64;stroke-width:8;stroke-miterlimit:10;} .st49{fill:#C33737;} .st50{fill:url(#SVGID_1_);stroke:#333333;stroke-width:7.5868;stroke-miterlimit:10;} .st51{fill:none;stroke:#333333;stroke-width:4.7966;stroke-miterlimit:10;} .st52{fill:#1A1A1A;} .st53{opacity:0.8;fill:none;stroke:#FFFFFF;stroke-width:4.7961;stroke-linecap:round;stroke-miterlimit:10;} .st54{opacity:0.8;fill:#FFFFFF;} .st55{fill:#E0E0E0;stroke:#333333;stroke-width:3.6091;stroke-miterlimit:10;} .st56{fill:#E0E0E0;stroke:#333333;stroke-width:3.5573;stroke-miterlimit:10;} .st57{fill:#F8B26A;} .st58{fill:none;stroke:#333333;stroke-width:2.0088;stroke-miterlimit:10;} .st59{fill:none;stroke:#333333;stroke-width:4.3399;stroke-miterlimit:10;} .st60{fill:#333333;stroke:#333333;stroke-width:6;stroke-miterlimit:10;} .st61{fill:none;stroke:#333333;stroke-width:8;stroke-linecap:round;stroke-miterlimit:10;} .st62{fill:#333333;stroke:#333333;stroke-width:4.517;stroke-linejoin:round;stroke-miterlimit:10;} .st63{fill:none;stroke:#333333;stroke-width:4.517;stroke-linecap:round;stroke-linejoin:round;stroke-miterlimit:10;} .st64{fill:none;stroke:#FFFFFF;stroke-width:4.517;stroke-linecap:round;stroke-linejoin:round;stroke-miterlimit:10;} .st65{fill:#FFFFFF;stroke:#333333;stroke-width:6.8572;stroke-linecap:round;stroke-linejoin:round;stroke-miterlimit:10;} .st66{fill:#333333;stroke:#333333;stroke-width:5.9833;stroke-linecap:round;stroke-linejoin:round;stroke-miterlimit:10;} .st67{fill:none;stroke:#333333;stroke-width:6;stroke-linejoin:round;stroke-miterlimit:10;} .st68{fill:none;stroke:#333333;stroke-width:6;stroke-linecap:round;stroke-linejoin:round;stroke-miterlimit:10;} .st69{fill:none;stroke:#333333;stroke-width:5;stroke-miterlimit:10;} .st70{fill-rule:evenodd;clip-rule:evenodd;fill:#FFFFFF;} .st71{fill-rule:evenodd;clip-rule:evenodd;fill:#FFDC6C;} .st72{fill:none;stroke:#F8B26A;stroke-width:1.2695;stroke-linecap:round;stroke-miterlimit:10;} .st73{fill:none;stroke:#333333;stroke-width:3.53;stroke-linecap:round;stroke-miterlimit:10;} .st74{fill:#FFFFFF;stroke:#333333;stroke-width:4.15;stroke-linecap:round;stroke-linejoin:round;stroke-miterlimit:10;} .st75{fill-rule:evenodd;clip-rule:evenodd;fill:#333333;} .st76{fill:none;stroke:#333333;stroke-width:1.2695;stroke-linecap:round;stroke-miterlimit:10;} .st77{fill:#4A3827;} .st78{fill:none;stroke:#333333;stroke-width:6;stroke-miterlimit:10;} .st79{fill:#F5E6C8;} .st80{fill:#E0E0E0;stroke:#666666;stroke-width:3.2312;stroke-miterlimit:10;} .st81{fill:none;stroke:#F8B26A;stroke-width:3;stroke-linecap:round;stroke-linejoin:round;stroke-miterlimit:10;} .st82{fill:#333333;stroke:#FFFFFF;stroke-miterlimit:10;} .st83{fill:none;stroke:#333333;stroke-width:3.7647;stroke-miterlimit:10;} .st84{fill:#77A4BD;stroke:#FFFFFF;stroke-width:3.7647;stroke-miterlimit:10;} .st85{opacity:0.5;fill:#A0C8D7;} .st86{fill:#A0C8D7;stroke:#FFFFFF;stroke-width:2.6329;stroke-linecap:round;stroke-miterlimit:10;} .st87{fill:none;stroke:#849B87;stroke-width:4;stroke-linecap:round;stroke-miterlimit:10;} .st88{fill:none;stroke:#E15B64;stroke-width:4;stroke-linecap:round;stroke-miterlimit:10;} .st89{fill:none;stroke:#849B87;stroke-width:6;stroke-linecap:round;stroke-miterlimit:10;} .st90{fill:none;stroke:#F47E60;stroke-width:6.0118;stroke-linecap:round;stroke-miterlimit:10;} .st91{fill:none;stroke:#E15B64;stroke-width:5.4;stroke-linecap:round;stroke-miterlimit:10;}</style><g style="transform-origin: 50px 50px 0px;"><g><g class="ld ld-breath" style="transform-origin: 50px 50px 0px; animation-duration: 1s; animation-delay: -0.941176s; animation-direction: normal;"><rect x="17.071" y="20.537" transform="matrix(0.9404 -0.34 0.34 0.9404 -14.2284 18.8014)" class="st3" width="58.926" height="58.925" fill="#ffffff" stroke="#d8365d" style="fill: rgb(255, 255, 255); stroke: rgb(216, 54, 93);"></rect></g><g class="ld ld-breath" style="transform-origin: 50px 50px 0px; animation-duration: 1s; animation-delay: -0.882353s; animation-direction: normal;"><rect x="23.881" y="27.347" transform="matrix(0.9404 -0.34 0.34 0.9404 -14.2284 18.8014)" class="st4" width="45.305" height="45.305" fill="rgb(160, 200, 215)" style="fill: rgb(160, 200, 215);"></rect></g></g></g><g style="transform-origin: 50px 50px 0px;"><g><g class="ld ld-breath" style="transform-origin: 50px 50px 0px; animation-duration: 1s; animation-delay: -0.823529s; animation-direction: normal;"><rect x="26.38" y="20.537" class="st3" width="58.926" height="58.925" fill="#ffffff" stroke="#d8365d" style="fill: rgb(255, 255, 255); stroke: rgb(216, 54, 93);"></rect></g><g class="ld ld-breath" style="transform-origin: 50px 50px 0px; animation-duration: 1s; animation-delay: -0.764706s; animation-direction: normal;"><rect x="33.19" y="27.347" class="st11" width="45.305" height="45.305" fill="rgb(224, 224, 224)" style="fill: rgb(224, 224, 224);"></rect></g></g></g><g class="ld ld-breath" style="transform-origin: 50px 50px 0px; animation-duration: 1s; animation-delay: -0.705882s; animation-direction: normal;"><path class="st17" d="M61.945,39.514c-3.628,0-5.575,2.292-5.945,3.689c-0.328-1.449-2.777-3.689-5.945-3.689 c-3.344,0-6.055,2.711-6.055,6.055l0,0.002c0,0.167,0.01,0.334,0.025,0.501c0.003,0.029,0.005,0.058,0.008,0.087 c0.017,0.158,0.04,0.315,0.069,0.473c0.007,0.037,0.014,0.074,0.022,0.111c0.032,0.155,0.068,0.31,0.111,0.465 c0.01,0.035,0.021,0.071,0.032,0.106c0.039,0.132,0.082,0.264,0.128,0.396c0.014,0.04,0.027,0.08,0.041,0.119 c0.052,0.14,0.11,0.281,0.17,0.421c0.026,0.061,0.052,0.122,0.08,0.182c0.059,0.129,0.12,0.257,0.185,0.386 c0.037,0.073,0.076,0.146,0.115,0.22c0.042,0.079,0.087,0.159,0.131,0.238c0.071,0.126,0.145,0.252,0.222,0.377 c0.034,0.056,0.068,0.112,0.104,0.167c0.111,0.175,0.226,0.35,0.347,0.524c0.011,0.016,0.022,0.032,0.033,0.048 c0.072,0.103,0.145,0.206,0.22,0.308h0.003c0.262,0.359,0.541,0.715,0.836,1.067H46.88c0.021,0.025,0.043,0.049,0.064,0.074 c0.168,0.199,0.339,0.397,0.515,0.593c0.006,0.006,0.012,0.013,0.017,0.019c0.812,0.903,1.702,1.773,2.596,2.599 c1.75,1.616,3.517,3.058,4.75,4.209c0.003,0.003,0.007,0.006,0.01,0.01c0.112,0.105,0.22,0.207,0.323,0.307 c0.016,0.016,0.032,0.031,0.048,0.047c0.095,0.093,0.187,0.185,0.273,0.273c0.006,0.006,0.012,0.012,0.017,0.018 c0.087,0.09,0.169,0.178,0.246,0.263c0.017,0.019,0.033,0.037,0.05,0.056c0.075,0.085,0.147,0.169,0.211,0.249 c0.06-0.088,0.128-0.179,0.2-0.271c0.016-0.021,0.033-0.042,0.05-0.063c0.073-0.092,0.151-0.185,0.235-0.28 c0.006-0.007,0.013-0.015,0.02-0.022c0.081-0.092,0.168-0.186,0.259-0.281c0.018-0.019,0.036-0.038,0.054-0.057 c0.098-0.102,0.201-0.206,0.308-0.312c0.008-0.008,0.017-0.016,0.025-0.024c0.108-0.106,0.221-0.214,0.337-0.324 c0.009-0.008,0.018-0.017,0.027-0.025c1.336-1.253,3.188-2.734,4.966-4.375c0.693-0.639,1.374-1.302,2.009-1.987 c0.02-0.022,0.041-0.044,0.061-0.066c0.169-0.183,0.333-0.369,0.495-0.555c0.022-0.026,0.046-0.051,0.068-0.076h-0.003 c0.301-0.351,0.587-0.707,0.854-1.067h0.004c0.064-0.086,0.126-0.173,0.188-0.26c0.044-0.062,0.087-0.124,0.13-0.187 c0.084-0.122,0.166-0.245,0.245-0.368c0.048-0.075,0.095-0.149,0.141-0.224c0.055-0.09,0.11-0.18,0.162-0.27 c0.063-0.108,0.123-0.216,0.182-0.324c0.035-0.065,0.069-0.13,0.103-0.195c0.069-0.134,0.134-0.268,0.196-0.403 c0.024-0.053,0.047-0.107,0.07-0.16c0.06-0.139,0.118-0.278,0.17-0.418c0.014-0.038,0.027-0.076,0.041-0.114 c0.05-0.141,0.096-0.282,0.137-0.423c0.01-0.036,0.022-0.071,0.032-0.107c0.044-0.158,0.081-0.317,0.113-0.476 c0.007-0.037,0.014-0.073,0.021-0.11c0.03-0.162,0.054-0.325,0.071-0.488c0.003-0.028,0.005-0.057,0.007-0.085 C67.99,45.919,68,45.746,68,45.572l0-0.002C68,42.225,65.289,39.514,61.945,39.514z" fill="rgb(225, 91, 100)" style="fill: rgb(225, 91, 100);"></path></g><metadata xmlns:d="https://loading.io/stock/" class="ld ld-breath" style="transform-origin: 50px 50px 0px; animation-duration: 1s; animation-delay: -0.647059s; animation-direction: normal;">
<d:name class="ld ld-breath" style="transform-origin: 50px 50px 0px; animation-duration: 1s; animation-delay: -0.588235s; animation-direction: normal;">photo</d:name>
<d:tags class="ld ld-breath" style="transform-origin: 50px 50px 0px; animation-duration: 1s; animation-delay: -0.529412s; animation-direction: normal;">favorite,like,bookmark,album,heart,gallery,picutre,photo,camera</d:tags>
<d:license class="ld ld-breath" style="transform-origin: 50px 50px 0px; animation-duration: 1s; animation-delay: -0.470588s; animation-direction: normal;">cc-by</d:license>
<d:slug class="ld ld-breath" style="transform-origin: 50px 50px 0px; animation-duration: 1s; animation-delay: -0.411765s; animation-direction: normal;">94bbuc</d:slug>
</metadata></g></g></g></g><style type="text/css" class="ld ld-breath" style="transform-origin: 50px 50px 0px; animation-duration: 1s; animation-delay: -0.352941s; animation-direction: normal;">@keyframes ld-breath {
  0% {
    -webkit-transform: scale(0.86);
    transform: scale(0.86);
  }
  50% {
    -webkit-transform: scale(1.06);
    transform: scale(1.06);
  }
  100% {
    -webkit-transform: scale(0.86);
    transform: scale(0.86);
  }
}
@-webkit-keyframes ld-breath {
  0% {
    -webkit-transform: scale(0.86);
    transform: scale(0.86);
  }
  50% {
    -webkit-transform: scale(1.06);
    transform: scale(1.06);
  }
  100% {
    -webkit-transform: scale(0.86);
    transform: scale(0.86);
  }
}
.ld.ld-breath {
  -webkit-animation: ld-breath 1s infinite;
  animation: ld-breath 1s infinite;
}
</style></svg></svg>